

<svg width="500" height="500" xmlns="http://www.w3.org/2000/svg">
			<linearGradient id="grad1" x1="0%" y1="0%" x2="100%" y2="0%">
				<stop offset="0%" style="stop-color:#134E5E;stop-opacity:1" />
				<stop offset="100%" style="stop-color:#71B280;stop-opacity:1" />
			</linearGradient>
  <style>
    path { stroke: url(#grad1); stroke-width:20px }
  </style>
  				<path
					d="M153.471 177.5C149.511 152.735 157.324 127.336 166.5 110.5C180.248 95.4431 194.081 85.705 207.5 79.9348M153.471 177.5H166.5C169.833 179.333 178.3 179.4 185.5 165L217 116C220.167 112.167 224.6 102.5 217 94.5L207.5 79.9348M153.471 177.5C157.5 193.5 163.048 212.842 181.5 226.5M207.5 79.9348C233.185 68.8902 257.353 72.3824 276.5 80.9384M276.5 80.9384C290.135 87.0314 301.223 95.6922 308.5 103.5C324.348 133.423 328.872 157.817 326.228 177.5M276.5 80.9384L265.5 99C262.333 102.5 258.5 111.4 268.5 119C278.5 126.6 296 156.167 303.5 170C305.333 172.5 311.3 177.5 320.5 177.5C329.7 177.5 328.152 177.5 326.228 177.5M326.228 177.5C323.452 198.169 312.771 213.643 299 224.867M181.5 226.5C187 236.954 217 247.5 244.5 249.5C263 249.5 282.5 242 299 224.867M181.5 226.5C185.167 221.651 194.3 211.6 193.5 212C192.5 212.5 198.5 203.5 210.5 206.5H280C284.667 206.167 293.8 206.8 293 212L299 224.867M45.5 19.5L93 56.5C85.5 69.1667 69.6 98.8 66 116C61.5 137.5 59 148 62.5 182C65.3 209.2 72 224 75 228C80 242.833 97.9 278.1 129.5 300.5H45.5C28 277 -5.2 213.4 2 147C0.666668 123.5 7.5 65.1 45.5 19.5ZM57 3.00001C57.4 3.00001 123.5 60 156.5 88.5C179.833 62.3333 244.6 23.7 317 78.5L412.5 3.00001C367.5 1.66668 277.3 -0.199991 276.5 3.00001C275.5 7.00001 241 43 241.5 43C241.9 43 210.333 16.3333 194.5 3.00001H57ZM433 10C471.667 59.1667 525.8 186.1 433 300.5H350C395.833 267.667 466.4 171.2 382 48L433 10ZM326 88.5C326.5 88.5 396.5 179.5 299 254L339.5 296C382.333 262.833 447.3 166.815 372.5 54.815L326 88.5ZM241.5 138C234 148.667 219.3 170 220.5 170C218.5 173 216.6 178.5 225 176.5H266C268 176.667 270.8 175.8 266 171C259.833 161.333 246.9 141.6 244.5 140C243.968 138.667 242.622 136.4 241.5 138ZM105 65.5C74.3333 104.833 39.6 206.9 146 300.5L183.5 254C153.833 238.333 104.8 186.3 146 103.5L105 65.5Z"
				 />
</svg>